<svg width="77" height="19" viewBox="0 0 77 19" fill="none" xmlns="http://www.w3.org/2000/svg">
<path d="M0.675781 16.9219V2.33203C0.675781 2.01172 0.785156 1.74219 1.00391 1.52344C1.22266 1.30469 1.48438 1.19531 1.78906 1.19531H3.99219C4.29688 1.19531 4.55469 1.30469 4.76562 1.52344C4.98438 1.74219 5.09375 2.01172 5.09375 2.33203V14.6836H15.3008C15.6055 14.6836 15.8633 14.793 16.0742 15.0117C16.293 15.2305 16.4023 15.4922 16.4023 15.7969V16.8984C16.4023 17.2031 16.293 17.4648 16.0742 17.6836C15.8633 17.8945 15.6055 18 15.3008 18H1.78906C1.48438 18 1.22266 17.8984 1.00391 17.6953C0.785156 17.4844 0.675781 17.2266 0.675781 16.9219ZM33.4766 16.2656C31.8828 17.6641 29.5391 18.3633 26.4453 18.3633C23.3594 18.3633 21.0156 17.6641 19.4141 16.2656C17.8125 14.8594 17.0117 12.6367 17.0117 9.59766C17.0117 6.55859 17.8125 4.33984 19.4141 2.94141C21.0156 1.54297 23.3594 0.84375 26.4453 0.84375C29.5391 0.84375 31.8828 1.54297 33.4766 2.94141C35.0781 4.33984 35.8789 6.55859 35.8789 9.59766C35.8789 12.6367 35.0781 14.8594 33.4766 16.2656ZM30.2773 5.41406C29.4883 4.47656 28.2109 4.00781 26.4453 4.00781C24.6875 4.00781 23.4102 4.47656 22.6133 5.41406C21.8242 6.35156 21.4297 7.75 21.4297 9.60938C21.4297 11.4609 21.8242 12.8555 22.6133 13.793C23.4102 14.7227 24.6875 15.1875 26.4453 15.1875C28.2109 15.1875 29.4883 14.7227 30.2773 13.793C31.0664 12.8555 31.4609 11.4609 31.4609 9.60938C31.4609 7.75 31.0664 6.35156 30.2773 5.41406ZM45.3828 18.0938C42.7891 18.0938 40.7969 17.3945 39.4062 15.9961C38.0234 14.5977 37.332 12.4609 37.332 9.58594C37.332 6.70312 38.0547 4.57031 39.5 3.1875C40.9531 1.79687 43.1289 1.10156 46.0273 1.10156H48.6406C50.3672 1.10156 51.9219 1.51562 53.3047 2.34375C54.6953 3.16406 55.3906 4.19141 55.3906 5.42578C55.3906 5.88672 55.2539 6.21875 54.9805 6.42188C54.707 6.61719 54.4414 6.71484 54.1836 6.71484H52.7891C52.1172 6.71484 51.582 6.33203 51.1836 5.56641C50.7852 4.80078 49.8008 4.41797 48.2305 4.41797H46.1445C44.4336 4.41797 43.2734 4.78516 42.6641 5.51953C42.0547 6.25391 41.75 7.60547 41.75 9.57422C41.75 11.543 42.0234 12.9062 42.5703 13.6641C43.1172 14.4141 44.0938 14.7891 45.5 14.7891H47.9023C49.1602 14.7891 50.0586 14.5508 50.5977 14.0742C51.1367 13.5898 51.4141 12.8984 51.4297 12H48.7812C48.4766 12 48.2148 11.8945 47.9961 11.6836C47.7852 11.4648 47.6797 11.2031 47.6797 10.8984V9.98438C47.6797 9.67969 47.7852 9.42188 47.9961 9.21094C48.2148 8.99219 48.4766 8.88281 48.7812 8.88281H54.6641C54.9688 8.88281 55.2266 8.99219 55.4375 9.21094C55.6562 9.42188 55.7656 9.67969 55.7656 9.98438V11.2852C55.7656 13.4727 55.1094 15.1562 53.7969 16.3359C52.4844 17.5078 50.5586 18.0938 48.0195 18.0938H45.3828ZM73.6719 16.2656C72.0781 17.6641 69.7344 18.3633 66.6406 18.3633C63.5547 18.3633 61.2109 17.6641 59.6094 16.2656C58.0078 14.8594 57.207 12.6367 57.207 9.59766C57.207 6.55859 58.0078 4.33984 59.6094 2.94141C61.2109 1.54297 63.5547 0.84375 66.6406 0.84375C69.7344 0.84375 72.0781 1.54297 73.6719 2.94141C75.2734 4.33984 76.0742 6.55859 76.0742 9.59766C76.0742 12.6367 75.2734 14.8594 73.6719 16.2656ZM70.4727 5.41406C69.6836 4.47656 68.4062 4.00781 66.6406 4.00781C64.8828 4.00781 63.6055 4.47656 62.8086 5.41406C62.0195 6.35156 61.625 7.75 61.625 9.60938C61.625 11.4609 62.0195 12.8555 62.8086 13.793C63.6055 14.7227 64.8828 15.1875 66.6406 15.1875C68.4062 15.1875 69.6836 14.7227 70.4727 13.793C71.2617 12.8555 71.6562 11.4609 71.6562 9.60938C71.6562 7.75 71.2617 6.35156 70.4727 5.41406Z" fill="white"/>
</svg>
